<?xml version="1.0" standalone="no"?>
<!DOCTYPE svg PUBLIC "-//W3C//DTD SVG 20010904//EN"
 "http://www.w3.org/TR/2001/REC-SVG-20010904/DTD/svg10.dtd">
<svg version="1.0" xmlns="http://www.w3.org/2000/svg"
 width="700.000000pt" height="700.000000pt" viewBox="0 0 700.000000 700.000000"
 preserveAspectRatio="xMidYMid meet">
<metadata>
Created by potrace 1.14, written by Peter Selinger 2001-2017
</metadata>
<g transform="translate(0.000000,700.000000) scale(0.100000,-0.100000)"
fill="#000000" stroke="none">
<path d="M3129 6996 c-2 -2 -53 -7 -114 -10 -105 -6 -174 -12 -240 -21 -16 -2
-52 -7 -80 -10 -27 -3 -63 -8 -80 -10 -16 -2 -52 -7 -80 -11 -27 -3 -132 -21
-233 -40 -1126 -211 -1870 -705 -1875 -1244 -1 -94 7 -150 31 -220 89 -255
327 -486 702 -683 307 -161 753 -306 1160 -377 36 -6 76 -13 90 -16 59 -10
201 -32 265 -39 28 -3 64 -8 80 -10 17 -2 66 -7 110 -11 44 -3 94 -8 110 -10
209 -22 810 -22 1060 1 192 18 332 34 440 50 50 8 108 17 130 21 22 3 70 12
107 20 37 7 82 16 100 19 18 3 62 13 98 21 36 9 74 17 84 19 38 8 203 57 311
91 345 111 629 250 845 414 361 274 497 589 390 905 -20 60 -76 163 -123 225
-86 115 -265 270 -429 371 -69 43 -246 132 -343 174 -49 21 -105 44 -124 52
-111 49 -551 177 -709 208 -87 16 -194 36 -227 40 -22 4 -47 8 -55 10 -8 2
-37 7 -65 10 -27 3 -59 8 -70 10 -11 2 -49 7 -85 10 -36 4 -75 8 -86 10 -12 2
-61 6 -110 10 -49 4 -100 9 -114 12 -30 5 -866 14 -871 9z"/>
<path d="M420 5155 c0 -14 4 -25 9 -25 4 0 6 11 3 25 -2 14 -6 25 -8 25 -2 0
-4 -11 -4 -25z"/>
<path d="M6565 5138 c-4 -24 -18 -72 -32 -108 -85 -219 -261 -401 -578 -597
-128 -80 -419 -207 -632 -277 -240 -78 -635 -171 -813 -191 -30 -3 -62 -8 -70
-10 -8 -2 -37 -7 -65 -10 -27 -4 -63 -8 -78 -10 -16 -3 -63 -7 -105 -11 -43
-3 -90 -7 -107 -9 -218 -27 -938 -27 -1190 0 -16 2 -57 6 -90 9 -57 6 -172 20
-260 32 -78 11 -271 45 -355 64 -47 10 -97 21 -111 24 -128 22 -480 133 -662
207 -123 51 -349 164 -429 216 -283 182 -469 390 -532 596 -10 31 -21 57 -26
57 -13 0 -5 -999 9 -1055 24 -93 106 -246 173 -325 65 -75 145 -153 207 -200
18 -14 38 -30 44 -35 7 -6 56 -39 109 -73 203 -131 479 -254 768 -344 103 -32
383 -104 440 -113 19 -3 51 -10 70 -15 69 -17 217 -40 445 -69 506 -63 1200
-62 1655 4 14 2 48 7 75 10 28 4 64 9 80 12 17 3 39 6 50 8 37 5 149 25 195
35 25 5 59 12 75 15 75 12 364 90 504 136 589 193 1016 486 1174 804 27 56 50
116 48 132 0 2 5 17 11 35 9 28 21 1098 12 1098 -1 0 -5 -19 -9 -42z"/>
<path d="M6570 3745 c0 -13 -11 -58 -24 -99 -114 -359 -531 -676 -1186 -901
-190 -65 -506 -145 -705 -179 -67 -12 -223 -36 -270 -42 -27 -3 -57 -8 -66 -9
-9 -2 -52 -6 -95 -10 -43 -4 -90 -8 -104 -10 -14 -2 -63 -7 -110 -10 -47 -3
-121 -8 -165 -11 -87 -5 -606 -6 -695 0 -178 11 -258 17 -280 21 -14 2 -54 7
-90 10 -65 6 -123 13 -170 20 -14 2 -45 7 -70 10 -113 15 -308 52 -435 81 -11
2 -33 7 -49 10 -16 2 -32 7 -36 9 -4 2 -21 7 -39 10 -56 10 -354 102 -463 144
-305 116 -532 240 -723 397 -192 158 -283 282 -345 474 l-27 85 2 -525 c1
-289 5 -538 9 -554 17 -73 51 -156 88 -221 23 -38 44 -72 47 -75 3 -3 18 -21
32 -40 71 -94 207 -213 349 -306 361 -236 866 -415 1455 -515 66 -11 130 -22
143 -24 13 -2 53 -7 90 -11 37 -3 69 -8 72 -9 3 -2 41 -6 85 -10 44 -4 96 -8
115 -10 254 -27 1062 -27 1195 0 11 2 49 7 85 10 71 6 210 23 250 29 14 3 43
7 65 11 699 102 1347 347 1702 643 139 116 262 268 312 385 54 126 55 132 56
710 1 295 1 537 -1 537 -2 0 -4 -11 -4 -25z"/>
<path d="M420 2321 c0 -6 4 -13 10 -16 6 -3 7 1 4 9 -7 18 -14 21 -14 7z"/>
<path d="M6556 2258 c-24 -94 -79 -203 -146 -293 -40 -53 -194 -199 -267 -253
-271 -200 -648 -366 -1093 -482 -118 -30 -316 -74 -382 -84 -89 -14 -113 -18
-118 -21 -3 -2 -33 -6 -65 -10 -33 -3 -67 -8 -75 -10 -13 -4 -61 -10 -165 -21
-16 -2 -64 -6 -105 -9 -41 -4 -86 -8 -98 -10 -142 -23 -910 -23 -1082 -1 -14
2 -65 7 -113 11 -48 3 -96 8 -105 10 -9 1 -42 6 -72 10 -64 8 -78 10 -185 25
-44 7 -89 14 -100 16 -11 3 -36 7 -55 10 -159 25 -469 104 -661 168 -356 118
-622 252 -864 436 -54 42 -207 203 -245 259 -51 76 -105 191 -115 244 -4 20
-11 37 -15 37 -4 0 -6 -231 -5 -512 2 -443 4 -521 19 -571 49 -176 160 -332
346 -489 60 -50 209 -153 270 -187 77 -42 275 -141 282 -141 4 0 30 -10 56
-21 26 -12 61 -28 79 -35 84 -38 456 -151 583 -179 274 -60 547 -105 725 -121
39 -3 80 -7 93 -9 172 -27 1121 -27 1245 0 12 2 51 7 87 10 356 28 990 167
1235 269 17 7 46 19 65 26 76 27 130 50 260 113 430 208 705 474 786 762 15
52 17 127 19 593 1 292 1 532 1 532 -1 0 -10 -33 -20 -72z"/>
</g>
</svg>
